<?xml version="1.0" encoding="UTF-8"?>
<!DOCTYPE svg PUBLIC "-//W3C//DTD SVG 1.1//EN" "http://www.w3.org/Graphics/SVG/1.1/DTD/svg11.dtd">
<!-- Creator: CorelDRAW -->
<svg xmlns="http://www.w3.org/2000/svg" xml:space="preserve" width="13.6802mm" height="16.9333mm" version="1.1" style="shape-rendering:geometricPrecision; text-rendering:geometricPrecision; image-rendering:optimizeQuality; fill-rule:evenodd; clip-rule:evenodd"
viewBox="0 0 13.52 16.74"
 xmlns:xlink="http://www.w3.org/1999/xlink"
 xmlns:xodm="http://www.corel.com/coreldraw/odm/2003">
 <defs>
  <style type="text/css">
   <![CDATA[
    .fil2 {fill:#FEFEFE}
    .fil0 {fill:#201E1E}
    .fil1 {fill:#C52613}
   ]]>
  </style>
 </defs>
 <g id="Camada_x0020_1">
  <metadata id="CorelCorpID_0Corel-Layer"/>
  <g id="cr-flamengo-new-seeklogo.cdr">
   <path class="fil0" d="M6.76 16.74c4.32,-1.86 6.78,-5.3 6.76,-10.84l0 -5.9 -13.52 0 0 5.9c-0.02,5.54 2.44,8.97 6.76,10.84z"/>
   <path class="fil1" d="M9.55 14.34l-5.57 0c0.8,0.69 1.73,1.28 2.79,1.76 1.06,-0.48 1.99,-1.07 2.79,-1.76zm-7.37 -2.12l9.17 0c0.37,-0.61 0.68,-1.27 0.92,-1.99l-11.01 0c0.24,0.72 0.55,1.39 0.92,1.99zm-1.41 -4.11l11.99 0c0.09,-0.63 0.14,-1.29 0.14,-1.99l-12.27 0c0.01,0.7 0.05,1.36 0.14,1.99zm6.17 -4.11l5.96 0 0 -1.99 -5.96 0 0 1.99zm-0.53 1.6l-5.78 0 0 -4.96 5.78 0 0 4.96z"/>
   <g>
    <path class="fil2" d="M3.63 4.18c-0.25,0.08 -0.39,0.13 -0.69,0.1 -1.32,-0.13 -1.43,-1.85 -0.6,-2.33 0.18,-0.1 0.41,-0.17 0.65,-0.11 0.1,0.02 0.2,0.09 0.26,0.14 0.07,0.06 0.1,0.14 0.15,0.24 0.02,-0.02 0.03,-0.06 0.04,-0.09 0.05,-0.18 0.07,-0.61 0,-0.74 -0.07,-0.14 -0.75,0.03 -0.87,0.07 -0.26,0.09 -0.44,0.23 -0.62,0.37 -0.15,0.12 -0.34,0.38 -0.44,0.55 -0.06,0.11 -0.11,0.21 -0.16,0.32 -0.09,0.16 -0.11,0.18 -0.23,0.24 -0,0 -0.01,0.01 -0.01,0 -0,-0 -0.01,0 -0.01,0 0.12,0.6 0.48,1.07 0.83,1.33 0.19,0.14 0.46,0.28 0.75,0.32 0.23,0.04 0.75,0.04 0.93,-0.08l0 -0.33z"/>
    <path class="fil2" d="M2.79 0.91c-0.18,-0.01 -0.29,-0.05 -0.45,-0.09l0.2 0.54c0.35,-0.08 0.53,-0.17 0.96,-0.11 0.63,0.09 1.03,0.49 1.03,1.14 0,0.16 -0.02,0.32 -0.08,0.46 -0.05,0.13 -0.13,0.26 -0.2,0.32 0.07,0.01 0.15,0 0.23,0 0.1,0 0.12,0.01 0.18,-0.05 0.24,-0.28 0.3,-0.65 0.4,-0.78 0.05,-0.07 0.09,-0.05 0.14,-0.09 -0.23,-0.55 -0.49,-0.94 -0.98,-1.17 -0.51,-0.23 -0.95,-0.15 -1.44,-0.18zm0.22 2.7c1.04,-0.03 1.15,0.83 1.74,1.52 0.14,0.16 0.21,0.29 0.36,0.22 0.25,-0.11 0.54,-0.39 0.58,-0.72 -0.05,0.02 -0.11,0.07 -0.18,0.09 -0.55,0.23 -0.81,-0.37 -1.09,-0.72 -0.44,-0.55 -0.64,-0.71 -1.42,-0.76l-0.01 -1.3c-0.13,-0.04 -0.31,-0.04 -0.43,0.01l0 2.13c0.09,0.05 0.31,0.11 0.44,0.1l0 -0.58z"/>
    <path class="fil2" d="M3.52 5.22c0.19,0.21 0.61,0.21 0.93,0.15l-0.14 -0.14c-0.15,-0.19 -0.15,-0.43 -0.15,-0.68 0,-0.16 -0.04,-0.19 -0.18,-0.37 -0.06,-0.08 -0.18,-0.23 -0.26,-0.27 0,0.25 0.03,0.88 -0.05,1.1 -0.05,0.13 -0.09,0.13 -0.15,0.21zm1.52 -3.5c0.02,0.07 0.07,0.13 0.11,0.2 0.02,0.04 0.03,0.07 0.05,0.11 0.04,0.07 0.03,0.04 0.1,0.06 0.16,0.04 0.25,0.21 0.22,0.41 0.14,-0.04 0.28,-0.22 0.33,-0.38 0.07,-0.21 0.06,-0.42 0.01,-0.62 -0.06,0.05 -0.09,0.16 -0.32,0.21 -0.15,0.03 -0.35,0.02 -0.51,0.02zm-1.49 -0.09c0.14,0.42 0.17,0.27 0.17,0.74 0,0.29 -0.02,0.62 0,0.9 0.06,0.04 0.12,0.05 0.19,0.09 0.13,0.08 0.19,0.14 0.29,0.24 0.16,0.15 0.89,-0.23 0.87,0.46 0.38,-0.15 0.45,-0.73 0.33,-0.95l-0.01 0.01c-0.06,0.06 -0.1,0.1 -0.2,0.13 -0.15,0.05 -0.85,0.04 -1.02,0.03l0 -1.2 0.23 -0c-0.02,-0.11 -0.1,-0.28 -0.16,-0.35 -0.13,-0 -0.25,-0 -0.38,-0.02 -0.08,-0.01 -0.28,-0.07 -0.31,-0.07z"/>
    <path class="fil2" d="M2.37 5.22c0.19,0.21 0.74,0.23 0.93,0.14 -0.01,-0.01 -0,-0.01 -0.02,-0.02 -0,-0 -0.01,-0.01 -0.01,-0.01 -0.29,-0.25 -0.2,-0.38 -0.26,-0.62 -0.16,-0 -0.41,-0.05 -0.43,-0.05 0,0.11 -0.01,0.24 -0.05,0.34 -0.05,0.13 -0.1,0.14 -0.15,0.21z"/>
   </g>
  </g>
 </g>
</svg>
