<?xml version="1.0" encoding="UTF-8"?>
<!DOCTYPE svg PUBLIC "-//W3C//DTD SVG 1.1//EN" "http://www.w3.org/Graphics/SVG/1.1/DTD/svg11.dtd">
<!-- Creator: CorelDRAW -->
<svg xmlns="http://www.w3.org/2000/svg" xml:space="preserve" width="16.9333mm" height="16.9333mm" version="1.1" style="shape-rendering:geometricPrecision; text-rendering:geometricPrecision; image-rendering:optimizeQuality; fill-rule:evenodd; clip-rule:evenodd"
viewBox="0 0 19.96 19.96"
 xmlns:xlink="http://www.w3.org/1999/xlink"
 xmlns:xodm="http://www.corel.com/coreldraw/odm/2003">
 <defs>
  <style type="text/css">
   <![CDATA[
    .fil1 {fill:none}
    .fil0 {fill:#FEFEFE}
    .fil2 {fill:#006B44}
   ]]>
  </style>
 </defs>
 <g id="Camada_x0020_1">
  <metadata id="CorelCorpID_0Corel-Layer"/>
  <g id="_1861727548048">
   <path class="fil0" d="M9.98 0c5.51,0 9.98,4.47 9.98,9.98 0,5.51 -4.47,9.98 -9.98,9.98 -5.51,0 -9.98,-4.47 -9.98,-9.98 0,-5.51 4.47,-9.98 9.98,-9.98z"/>
   <g>
    <path class="fil1" d="M9.98 0c5.51,0 9.98,4.47 9.98,9.98 0,5.51 -4.47,9.98 -9.98,9.98 -5.51,0 -9.98,-4.47 -9.98,-9.98 0,-5.51 4.47,-9.98 9.98,-9.98z"/>
    <path class="fil2" d="M9.98 0c5.51,0 9.98,4.47 9.98,9.98 0,5.51 -4.47,9.98 -9.98,9.98 -5.51,0 -9.98,-4.47 -9.98,-9.98 0,-5.51 4.47,-9.98 9.98,-9.98zm0 0.26c5.37,0 9.72,4.35 9.72,9.72 0,5.37 -4.35,9.72 -9.72,9.72 -5.37,0 -9.72,-4.35 -9.72,-9.72 0,-5.37 4.35,-9.72 9.72,-9.72z"/>
    <path class="fil2" d="M9.98 0.54c5.21,0 9.44,4.23 9.44,9.44 0,5.21 -4.23,9.44 -9.44,9.44 -5.21,0 -9.44,-4.23 -9.44,-9.44 0,-5.21 4.23,-9.44 9.44,-9.44zm-0 0.87c2.85,0 5.17,2.31 5.17,5.17 0,2.85 -2.31,5.17 -5.17,5.17 -2.85,0 -5.17,-2.31 -5.17,-5.17 0,-2.85 2.31,-5.17 5.17,-5.17z"/>
    <path class="fil2" d="M9.98 1.68c2.7,0 4.9,2.19 4.9,4.9 0,2.7 -2.19,4.9 -4.9,4.9 -2.7,0 -4.9,-2.19 -4.9,-4.9 0,-2.7 2.19,-4.9 4.9,-4.9zm3.92 2.17c0.06,3.2 -1.65,6.04 -3.81,7.5 2.59,-0.06 4.66,-2.17 4.66,-4.77 0,-1.01 -0.32,-1.95 -0.86,-2.73zm-4.03 7.5c-2.16,-1.46 -3.87,-4.3 -3.81,-7.5 -0.54,0.77 -0.86,1.71 -0.86,2.73 0,2.6 2.08,4.71 4.66,4.77zm-3.74 -7.6c1.37,-0.32 2.76,-0.99 3.8,-1.95 -1.56,0.02 -2.94,0.78 -3.8,1.95zm3.9 -1.95c1.08,0.96 2.39,1.62 3.79,1.95 -0.86,-1.17 -2.24,-1.93 -3.79,-1.95zm-0.05 0.08c-1.05,0.97 -2.44,1.63 -3.82,1.96 -0.02,0.77 0.07,1.53 0.26,2.28 0.18,0.74 0.46,1.45 0.82,2.12 0.65,1.21 1.6,2.31 2.74,3.07 1.15,-0.76 2.09,-1.86 2.74,-3.07 0.36,-0.67 0.64,-1.38 0.82,-2.12 0.19,-0.75 0.27,-1.51 0.26,-2.28 -1.41,-0.33 -2.73,-1 -3.82,-1.96z"/>
    <path class="fil2" d="M9.98 2.23c-1.01,0.87 -2.29,1.49 -3.57,1.82 0,0.68 0.09,1.36 0.25,2.02 0.18,0.72 0.45,1.41 0.8,2.06 0.6,1.12 1.47,2.15 2.52,2.88 1.05,-0.73 1.91,-1.76 2.52,-2.88 0.35,-0.65 0.62,-1.34 0.8,-2.06 0.16,-0.66 0.25,-1.34 0.25,-2.02 -1.31,-0.34 -2.53,-0.95 -3.56,-1.82zm-3.47 2.28l6.92 0c0.01,-0.09 0.01,-0.19 0.01,-0.28l-6.95 0c0,0.09 0.01,0.19 0.01,0.28zm6.92 0.04l-6.92 0c0.01,0.09 0.01,0.19 0.02,0.28l6.87 0c0.01,-0.09 0.02,-0.19 0.02,-0.28zm-6.67 1.55l6.43 0c0,-0.02 0.01,-0.04 0.01,-0.05 0.02,-0.07 0.04,-0.15 0.05,-0.22l-6.56 0c0.02,0.07 0.03,0.15 0.05,0.22 0,0.02 0.01,0.04 0.01,0.05zm6.42 0.04l-6.41 0c0.02,0.09 0.05,0.19 0.08,0.28l6.25 0c0.03,-0.09 0.05,-0.19 0.08,-0.28zm-4.88 3.12l3.35 0c0.07,-0.09 0.13,-0.18 0.2,-0.27l-3.75 0c0.06,0.09 0.13,0.18 0.2,0.27zm3.32 0.04l-3.29 0c0.07,0.09 0.15,0.19 0.23,0.28l2.84 0c0.08,-0.09 0.15,-0.18 0.23,-0.28zm-2.11 1.23l0.94 0c0.11,-0.09 0.21,-0.18 0.31,-0.28l-1.56 0c0.1,0.1 0.21,0.19 0.31,0.28zm0.89 0.04l-0.84 0c0.14,0.11 0.28,0.22 0.42,0.32 0.14,-0.1 0.28,-0.21 0.42,-0.32zm-1.25 -0.36l1.65 0c0.09,-0.09 0.18,-0.18 0.27,-0.27l-2.2 0c0.09,0.09 0.18,0.18 0.27,0.27zm-0.31 -0.31l2.27 0c0.08,-0.09 0.17,-0.18 0.25,-0.28l-2.77 0c0.08,0.09 0.16,0.19 0.25,0.28zm-0.76 -0.94l3.8 0c0.06,-0.09 0.13,-0.18 0.19,-0.28l-4.17 0c0.06,0.09 0.12,0.19 0.19,0.28zm-0.21 -0.32l4.23 0c0.06,-0.09 0.12,-0.18 0.17,-0.28l-4.57 0c0.05,0.09 0.11,0.19 0.17,0.28zm-0.19 -0.32l4.61 0c0.05,-0.08 0.09,-0.16 0.13,-0.24l0.02 -0.03 -4.91 0 0.02 0.03c0.04,0.08 0.09,0.16 0.13,0.24zm-0.33 -0.63l5.27 0c0.04,-0.09 0.09,-0.18 0.13,-0.28l-5.53 0c0.04,0.09 0.08,0.19 0.13,0.28zm5.25 0.04l-5.23 0c0.04,0.09 0.09,0.18 0.14,0.28l4.96 0c0.05,-0.09 0.09,-0.18 0.14,-0.28zm-5.4 -0.36l5.56 0c0.04,-0.09 0.08,-0.18 0.11,-0.28l-5.79 0c0.04,0.09 0.07,0.19 0.11,0.28zm-0.13 -0.32l5.82 0c0.04,-0.09 0.07,-0.18 0.1,-0.28l-6.02 0c0.03,0.09 0.07,0.18 0.1,0.28zm-0.11 -0.32l6.05 0c0.03,-0.09 0.06,-0.19 0.09,-0.28l-6.23 0c0.03,0.09 0.06,0.19 0.09,0.28zm-0.26 -0.95l6.58 0c0.02,-0.09 0.04,-0.19 0.05,-0.28l-6.69 0c0.02,0.09 0.04,0.19 0.05,0.28zm6.72 -0.91l-6.87 0c0.01,0.09 0.02,0.18 0.03,0.28l6.8 0c0.01,-0.09 0.02,-0.18 0.03,-0.28zm-0.04 0.32l-6.79 0c0.01,0.09 0.03,0.18 0.04,0.28l6.7 0c0.02,-0.09 0.03,-0.18 0.04,-0.28zm-3.72 -2.58l0.66 0c-0.11,-0.08 -0.23,-0.17 -0.34,-0.26 -0.11,0.09 -0.22,0.18 -0.33,0.26zm0.72 0.04l-0.77 0c-0.13,0.1 -0.26,0.19 -0.4,0.28l1.57 0c-0.13,-0.09 -0.27,-0.18 -0.4,-0.28zm0.46 0.32l-1.69 0c-0.15,0.1 -0.31,0.19 -0.47,0.28l2.62 0c-0.16,-0.09 -0.31,-0.18 -0.46,-0.28zm0.54 0.32l-2.77 0c-0.18,0.1 -0.36,0.19 -0.54,0.27l3.85 0c-0.18,-0.08 -0.36,-0.18 -0.54,-0.27zm0.62 0.31l-4.03 0c-0.23,0.1 -0.46,0.19 -0.69,0.28l5.4 0c-0.23,-0.08 -0.46,-0.18 -0.68,-0.28zm0.8 0.32l-5.63 0c-0.22,0.08 -0.44,0.14 -0.66,0.2 0,0.02 0,0.05 0,0.07l6.95 0c0,-0.02 0,-0.05 0,-0.07 -0.22,-0.06 -0.44,-0.13 -0.66,-0.2z"/>
    <path class="fil2" d="M8.9 9.05c-0.22,0.09 -0.44,0.05 -0.59,-0.17l-0.07 -0.1 0.11 -0.04c0.22,-0.08 0.24,-0.25 0.24,-0.47l-0 -2.08 -0.27 -0.26 0.27 -0.27 -0 -1.05c0,-0.11 0.02,-0.3 -0.04,-0.39 -0.07,-0.12 -0.18,-0.16 -0.31,-0.17l-0.19 -0.01 0.13 -0.14c0.26,-0.28 0.54,-0.27 0.8,-0.06 0.2,-0.26 0.45,-0.46 0.74,-0.62 0.23,-0.13 0.49,-0.14 0.74,-0.11 0.25,0.03 0.48,0.09 0.7,0.21 0.24,0.13 0.45,0.31 0.61,0.54 0.18,0.25 0.29,0.53 0.34,0.83 0.05,0.29 0.06,0.58 0.02,0.87 -0.05,0.34 -0.17,0.64 -0.36,0.92 -0.18,0.27 -0.42,0.46 -0.73,0.58 -0.37,0.14 -0.75,0.16 -1.08,-0.08 -0.23,-0.17 -0.32,-0.42 -0.34,-0.69 -0.01,-0.22 0.06,-0.42 0.25,-0.54 0.19,-0.12 0.39,-0.11 0.57,0.02 0.15,0.11 0.18,0.3 0.15,0.47 -0.05,0.25 -0.25,0.33 -0.48,0.24 -0.01,-0.01 -0.03,-0.01 -0.04,-0.02 0.04,0.09 0.09,0.18 0.18,0.21 0.11,0.05 0.24,0.06 0.36,0.03 0.16,-0.04 0.3,-0.14 0.42,-0.26 0.2,-0.22 0.24,-0.51 0.2,-0.79 -0.03,-0.17 -0.09,-0.32 -0.17,-0.47l-0.03 -0.06 0.04 -0.05c0.21,-0.24 0.21,-0.53 0.11,-0.82 -0.06,-0.18 -0.16,-0.34 -0.32,-0.46 -0.15,-0.11 -0.32,-0.17 -0.5,-0.17 -0.21,0 -0.4,0.07 -0.55,0.21 -0.22,0.2 -0.31,0.47 -0.31,0.77l0 3.65c0,0.44 0.06,1.09 0.46,1.35l0.18 0.12 -0.21 0.05c-0.07,0.02 -0.14,0.02 -0.22,0.02 -0.21,-0.01 -0.41,-0.12 -0.55,-0.27 -0.13,-0.14 -0.21,-0.3 -0.24,-0.49z"/>
    <path class="fil0" d="M9.38 4.62l0 3.65c0,0.57 0.1,1.16 0.51,1.43 -0.43,0.1 -0.9,-0.26 -0.91,-0.79 -0.22,0.14 -0.45,0.14 -0.6,-0.08 0.24,-0.09 0.3,-0.26 0.3,-0.56l-0 -2.12 -0.23 -0.22 0.23 -0.23 -0 -1.09c-0,-0.13 0.02,-0.32 -0.05,-0.44 -0.08,-0.13 -0.21,-0.2 -0.38,-0.21 0.23,-0.26 0.48,-0.24 0.74,0.02 0.19,-0.26 0.44,-0.5 0.77,-0.67 0.18,-0.1 0.39,-0.13 0.69,-0.1 0.23,0.02 0.45,0.08 0.67,0.2 0.23,0.12 0.43,0.3 0.58,0.51 0.17,0.24 0.28,0.51 0.33,0.8 0.05,0.29 0.06,0.57 0.02,0.84 -0.05,0.33 -0.17,0.62 -0.35,0.89 -0.18,0.27 -0.42,0.44 -0.69,0.54 -0.37,0.14 -0.71,0.14 -0.99,-0.07 -0.2,-0.15 -0.29,-0.37 -0.3,-0.62 -0.01,-0.2 0.06,-0.36 0.21,-0.46 0.16,-0.1 0.32,-0.08 0.46,0.02 0.1,0.07 0.15,0.21 0.11,0.39 -0.03,0.17 -0.16,0.25 -0.36,0.18 -0.08,-0.03 -0.15,-0.07 -0.2,-0.13 0.01,0.25 0.14,0.43 0.27,0.49 0.23,0.11 0.58,0.06 0.88,-0.25 0.2,-0.22 0.28,-0.51 0.22,-0.87 -0.03,-0.18 -0.1,-0.34 -0.18,-0.5 0.19,-0.22 0.26,-0.52 0.12,-0.91 -0.07,-0.2 -0.18,-0.37 -0.35,-0.5 -0.16,-0.13 -0.35,-0.19 -0.56,-0.18 -0.23,0 -0.44,0.07 -0.61,0.23 -0.2,0.18 -0.34,0.45 -0.34,0.83z"/>
   </g>
   <path class="fil0" d="M2.96 6.65l0.15 0.56 0.56 0.12 -0.48 0.31 0.06 0.58 -0.45 -0.37 -0.52 0.24 0.21 -0.54 -0.39 -0.43 0.57 0.04 0.28 -0.5zm14.05 0l-0.15 0.56 -0.56 0.12 0.48 0.31 -0.06 0.58 0.45 -0.37 0.52 0.24 -0.21 -0.54 0.39 -0.43 -0.57 0.04 -0.28 -0.5zm-7.69 12.14c-0.41,-0.03 -0.8,-0.09 -1.2,-0.18l0.55 -3.26 -1.39 2.21 -0.04 -2.68 -1.27 2.97c-0.35,-0.18 -0.7,-0.39 -1.04,-0.63l2.91 -5.32c0.17,0.07 0.35,0.14 0.54,0.19l-0.31 2.72 1.07 -2.56c0.18,0.02 0.37,0.04 0.56,0.04l-0.39 6.5zm6.92 -9.82c-0.06,0.18 -0.13,0.35 -0.21,0.52 -0.15,-0.05 -0.3,-0.08 -0.37,-0.01 -0.09,0.08 -0.13,0.2 -0.09,0.27 0.07,0.11 0.19,0.15 0.32,0.18 0.19,0.06 0.3,0.02 0.41,-0.05 0.25,-0.19 0.5,-0.37 0.78,-0.52 0.19,-0.1 0.4,-0.14 0.61,-0.12 0.25,0.02 0.49,0.05 0.71,0.15 0.17,0.08 0.3,0.21 0.39,0.36 0.09,0.15 0.09,0.31 0.09,0.49 -0,0.23 -0.02,0.44 -0.07,0.64 -0.04,0.17 -0.1,0.31 -0.21,0.41 -0.13,0.11 -0.27,0.18 -0.42,0.19 -0.18,0.02 -0.35,0.01 -0.52,-0.06l-0.44 -0.18c0.09,-0.23 0.17,-0.47 0.25,-0.71 0.12,0.06 0.26,0.11 0.4,0.1 0.13,-0.01 0.21,-0.11 0.2,-0.3 -0,-0.16 -0.05,-0.24 -0.14,-0.28 -0.1,-0.04 -0.23,-0.09 -0.36,-0.09 -0.14,-0 -0.25,0.05 -0.35,0.11 -0.14,0.09 -0.26,0.21 -0.4,0.3 -0.18,0.12 -0.35,0.23 -0.55,0.27 -0.17,0.04 -0.35,0.03 -0.55,-0.04 -0.2,-0.08 -0.4,-0.17 -0.59,-0.28 -0.14,-0.08 -0.23,-0.19 -0.28,-0.33 -0.06,-0.14 -0.05,-0.28 -0,-0.41 0.07,-0.17 0.14,-0.34 0.26,-0.49 0.1,-0.12 0.23,-0.18 0.37,-0.2 0.15,-0.01 0.3,-0 0.45,0.03l0.32 0.05zm-4.25 2.98l2.7 5.51c0.37,-0.24 0.72,-0.5 1.04,-0.78l-1.42 -2.08 0.22 -0.16 1.91 1.55c0.23,-0.25 0.45,-0.51 0.65,-0.79l-1.96 -1.29c0.2,-0.23 0.16,-0.53 -0.01,-0.85 -0.15,-0.28 -0.4,-0.5 -0.64,-0.72 -0.28,-0.25 -0.54,-0.52 -0.84,-0.75 -0.19,-0.16 -0.45,-0.24 -0.69,-0.1 -0.31,0.18 -0.63,0.34 -0.97,0.47zm0.81 0.29l1.09 1.7c0.11,-0.07 0.23,-0.15 0.31,-0.25 0.09,-0.12 0.1,-0.3 0.03,-0.41 -0.19,-0.33 -0.54,-0.69 -0.8,-1.04 -0.09,-0.12 -0.22,-0.22 -0.38,-0.14l-0.25 0.13zm-11.63 -2.84c1.17,-0.2 2.35,-0.42 3.53,-0.63 0.1,0.23 0.21,0.47 0.34,0.69 0.08,0.14 0.19,0.29 0.14,0.51 -0.03,0.15 -0.1,0.28 -0.22,0.39 -0.12,0.11 -0.72,0.41 -1.09,0.58 -0.14,0.07 -0.3,0.09 -0.45,0.09 -0.17,0 -0.33,-0.02 -0.48,-0.1 -0.14,-0.07 -0.25,-0.16 -0.32,-0.29 -0.06,-0.1 -0.1,-0.29 -0.15,-0.48l-0.05 -0.21 -1.24 0.34c-0.02,-0.3 -0.02,-0.6 -0,-0.9zm1.97 0.36l1.19 -0.32c0.04,0.08 0.08,0.16 0.12,0.25 0.03,0.06 0.04,0.13 0,0.19 -0.04,0.06 -0.09,0.09 -0.15,0.12 -0.24,0.11 -0.49,0.21 -0.75,0.28 -0.13,0.03 -0.21,0 -0.24,-0.05 -0.04,-0.05 -0.06,-0.1 -0.08,-0.16 -0.03,-0.1 -0.06,-0.2 -0.07,-0.3zm14.03 5.33l-3.36 -4.24c0.14,-0.13 0.28,-0.27 0.42,-0.42l4.38 1.51c-0.08,0.29 -0.17,0.58 -0.27,0.88l-1.05 -0.46c-0.12,0.31 -0.28,0.6 -0.45,0.88l0.92 0.93c-0.17,0.33 -0.37,0.64 -0.58,0.92zm-2.11 -3.65l1.2 1.24c0.14,-0.19 0.25,-0.4 0.34,-0.61l-1.55 -0.63zm-12.07 3.92c-0.21,-0.26 -0.41,-0.57 -0.61,-0.9l0.92 -1c-0.22,-0.3 -0.41,-0.62 -0.55,-0.97l-1.07 0.48c-0.12,-0.32 -0.21,-0.62 -0.27,-0.9l4.4 -1.56 0.47 0.44 -3.3 4.4zm0.42 -3.16c0.12,0.24 0.27,0.46 0.43,0.67l1.26 -1.37 -1.69 0.69zm-0.3 3.3c0.48,0.62 1.03,1.12 1.62,1.57l0.53 -0.89c-0.28,-0.2 -0.55,-0.43 -0.79,-0.68l2.89 -3.83c-0.17,-0.09 -0.34,-0.19 -0.5,-0.3l-3.75 4.13zm10 2.74c0.41,-0.16 0.8,-0.35 1.18,-0.55l-2.52 -5.67c-0.16,0.07 -0.33,0.11 -0.51,0.14l1.85 6.08zm-3.17 -5.94l-0.14 6.5c1.02,0.03 1.99,-0.13 2.93,-0.43l-0.29 -1.09c-0.47,0.15 -0.93,0.26 -1.38,0.3l-0.25 -2.22c0.39,-0.03 0.74,-0.1 1.06,-0.22l-0.22 -0.82c-0.31,0.09 -0.63,0.15 -0.95,0.17l-0.17 -1.56c0.25,-0.01 0.49,-0.05 0.72,-0.11l-0.16 -0.61c-0.37,0.08 -0.74,0.11 -1.14,0.1zm4.95 -9.41l0.1 0.26 -0.19 0.21 0.28 -0.01 0.14 0.25 0.07 -0.27 0.27 -0.05 -0.23 -0.15 0.03 -0.28 -0.22 0.18 -0.25 -0.12zm0.84 0.98l0.07 0.34 -0.27 0.21 0.34 0.04 0.12 0.32 0.14 -0.31 0.34 -0.01 -0.25 -0.23 0.1 -0.33 -0.3 0.17 -0.28 -0.19zm0.71 1.24l-0 0.45 -0.4 0.2 0.42 0.14 0.06 0.44 0.26 -0.36 0.43 0.07 -0.26 -0.36 0.21 -0.39 -0.42 0.14 -0.31 -0.32zm-11.37 -2.21l-0.1 0.26 0.19 0.21 -0.28 -0.01 -0.14 0.25 -0.07 -0.27 -0.27 -0.05 0.23 -0.15 -0.03 -0.28 0.22 0.18 0.25 -0.12zm-0.84 0.98l-0.07 0.34 0.27 0.21 -0.34 0.04 -0.12 0.32 -0.14 -0.31 -0.34 -0.01 0.25 -0.23 -0.1 -0.33 0.3 0.17 0.28 -0.19zm-0.71 1.24l0 0.45 0.4 0.2 -0.42 0.14 -0.06 0.44 -0.26 -0.36 -0.43 0.07 0.26 -0.36 -0.21 -0.39 0.42 0.14 0.31 -0.32z"/>
  </g>
 </g>
</svg>
