<?xml version="1.0" encoding="UTF-8"?>
<!DOCTYPE svg PUBLIC "-//W3C//DTD SVG 1.1//EN" "http://www.w3.org/Graphics/SVG/1.1/DTD/svg11.dtd">
<!-- Creator: CorelDRAW -->
<svg xmlns="http://www.w3.org/2000/svg" xml:space="preserve" width="5.2916mm" height="4.7626mm" version="1.1" style="shape-rendering:geometricPrecision; text-rendering:geometricPrecision; image-rendering:optimizeQuality; fill-rule:evenodd; clip-rule:evenodd"
viewBox="0 0 5.93 5.34"
 xmlns:xlink="http://www.w3.org/1999/xlink"
 xmlns:xodm="http://www.corel.com/coreldraw/odm/2003">
 <defs>
  <style type="text/css">
   <![CDATA[
    .fil0 {fill:black;fill-rule:nonzero}
   ]]>
  </style>
 </defs>
 <g id="Camada_x0020_1">
  <metadata id="CorelCorpID_0Corel-Layer"/>
  <path id="tv.svg" class="fil0" d="M2.22 3.71l2.08 -1.33 -2.08 -1.33 0 2.67 0 -0zm-0.44 1.63l0 -0.59 -1.19 0c-0.16,0 -0.3,-0.06 -0.42,-0.17 -0.12,-0.12 -0.17,-0.26 -0.17,-0.42l0 -3.56c0,-0.16 0.06,-0.3 0.17,-0.42 0.12,-0.12 0.26,-0.17 0.42,-0.17l4.74 0c0.16,0 0.3,0.06 0.42,0.17 0.12,0.12 0.17,0.26 0.17,0.42l0 3.56c0,0.16 -0.06,0.3 -0.17,0.42 -0.12,0.12 -0.26,0.17 -0.42,0.17l-1.19 0 0 0.59 -2.37 -0zm-1.19 -1.19l4.74 0 0 -3.56 -4.74 0 0 3.56zm0 0l0 -3.56 0 3.56z"/>
 </g>
</svg>
